<?xml version="1.0" encoding="utf-8"?>
<!-- Generator: Adobe Illustrator 25.2.3, SVG Export Plug-In . SVG Version: 6.00 Build 0)  -->
<svg version="1.1" id="Calque_1" xmlns="http://www.w3.org/2000/svg" xmlns:xlink="http://www.w3.org/1999/xlink" x="0px" y="0px"
	 viewBox="0 0 417 417" style="enable-background:new 0 0 417 417;" xml:space="preserve">
<style type="text/css">
	.st0{fill:#FFFFFF;}
	.st1{fill:#99E2D0;}
</style>
<path class="st0" d="M208.5,0L208.5,0C93.3,0,0,93.3,0,208.5v0C0,323.7,93.3,417,208.5,417h0C323.7,417,417,323.7,417,208.5v0
	C417,93.3,323.7,0,208.5,0z"/>
<path class="st1" d="M176.3,311.3c-2.6,2.6-6.2,4.1-9.9,4.1c-3.7,0-7.3-1.5-9.9-4.1L77.1,232c-8.2-8.2-8.2-21.6,0-29.8l9.9-9.9
	c8.2-8.2,21.6-8.2,29.8,0l49.5,49.5L300.2,108c8.2-8.2,21.6-8.2,29.8,0l9.9,9.9c8.2,8.2,8.2,21.6,0,29.8L176.3,311.3z"/>
</svg>
